<?xml version="1.0" encoding="utf-8"?>
<!-- Generator: Adobe Illustrator 24.0.1, SVG Export Plug-In . SVG Version: 6.00 Build 0)  -->
<svg version="1.1" id="Capa_1" xmlns="http://www.w3.org/2000/svg" xmlns:xlink="http://www.w3.org/1999/xlink" x="0px" y="0px"
	 viewBox="0 0 95.1 89.8" style="enable-background:new 0 0 95.1 89.8;" xml:space="preserve">
<style type="text/css">
	.st0{fill:#FFFFFF;}
	.st1{fill:none;}
</style>
<g>
	<path class="st0" d="M84.1,30.8c0.4,0.9,0.8,1.8,1.3,2.9c-0.1-2.9,1.4-4.2,3.8-5.2c0.2,1.5,0.3,2.8-0.6,3.9c-0.5,0.6-1,1.4-1.7,1.7
		c-1.1,0.6-1.3,1.3-1,2.5c0.3,0.9,0.4,2,0.6,3.3c0.6-2.7,2.3-3.8,4.7-4.3c0.1,1.5-0.2,2.9-1.4,3.9c-0.6,0.6-1.3,1.1-2.1,1.4
		c-0.9,0.4-1.2,0.8-1.1,1.8c0.1,1,0,2.1,0,3.4c1.2-2.4,3.1-3.1,5.4-3.2c-0.4,2.6-1.9,4.1-4.3,4.7c-1.1,0.2-1.5,0.8-1.6,1.8
		c-0.1,1-0.4,2-0.5,3.1c1.4-2.2,3.5-2.4,5.9-2.2c-0.5,1.5-1.2,2.8-2.7,3.4c-1,0.4-2.1,0.5-3.2,0.7c-0.3,0.1-0.7,0.3-0.9,0.6
		c-0.5,1.2-0.9,2.4-1.4,3.8c1.8-1.9,4-1.9,6.3-1.2c-1.1,2.4-3.3,3.5-6.3,3.1c-0.8-0.1-1.2,0.1-1.6,0.8c-0.4,0.8-0.8,1.6-1.4,2.3
		c-0.3,0.4-0.7,0.6-1.1,0.9c-0.1-0.1-0.1-0.1-0.2-0.2c0.7-1.2,1.5-2.3,2.2-3.5C79,59,77.6,56.7,79,53.4c2,1.4,3.5,3,3,5.8
		c0.1,0,0.2,0,0.3,0c0.5-1.3,1.1-2.5,1.6-3.8c0.1-0.2-0.2-0.5-0.4-0.7c-0.7-0.6-1.4-1.2-2-1.9c-1.2-1.3-1.3-2.9-1-4.6
		c2.3,0.5,3.6,2.2,4.2,5.1c0.4-1.5,0.8-3,1.2-4.6c-2.7-1.2-5-2.6-4.8-6c2.2,0,3.7,1.4,5,4.7c0-1.6,0.1-3.2,0.1-4.8
		c0-0.2-0.4-0.5-0.7-0.6c-0.8-0.4-1.7-0.6-2.5-1c-1.5-0.8-2.1-2.1-2.3-3.7c2.1-0.5,3.9,0.8,5.5,3.9c-0.1-1.1-0.1-1.9-0.2-2.7
		c-0.1-0.8-0.3-1.7-0.4-2.6c-2.8-0.1-5.4-0.8-6.3-4c2.5-0.4,4.5,0.3,5.9,2.6C84.8,33.2,84.5,32,84.1,30.8
		C84.2,30.7,84.1,30.8,84.1,30.8z"/>
	<path class="st0" d="M11.2,30.7c-0.3,1.2-0.6,2.5-0.9,3.7c1.4-2.2,3.4-2.9,6-2.6c-0.9,3.2-3.4,3.9-6.3,4c-0.2,1.7-0.5,3.4-0.7,5
		c0.1,0.1,0.1,0.1,0.2,0.2c0.7-2.8,2.7-3.8,5.4-3.9c-0.2,1.7-0.8,3-2.3,3.9c-0.6,0.3-1.3,0.8-1.9,0.8c-1.4,0.1-1.5,0.9-1.4,2
		c0.1,1.2,0.1,2.3,0.3,3.6c0.4-2.9,2.2-4.2,4.8-4.8c0.2,2.9-0.9,4.4-4.7,6.2c0.4,1.5,0.7,3,1.1,4.6c0.2-2.7,1.8-4.2,4.1-5.2
		c0.7,2.4,0.3,4.3-3.5,7c0.6,1.3,1.1,2.7,1.7,4c0.1,0,0.2,0,0.3,0.1c-0.5-2.7,1-4.4,3-5.8c1.4,3.2,0,5.5-2.3,7.6
		c0.7,1.2,1.5,2.3,2.2,3.5c-0.1,0.1-0.1,0.1-0.2,0.2c-0.4-0.3-0.9-0.5-1.1-0.9c-0.6-0.8-1-1.6-1.5-2.5c-0.3-0.6-0.6-0.7-1.3-0.6
		c-3.1,0.5-5.2-0.5-6.5-3.1c2.3-0.7,4.4-0.8,6.3,1.1c-0.5-1.3-0.9-2.6-1.5-3.8c-0.1-0.3-0.7-0.4-1-0.4C7,54.3,5,53.4,4,50.8
		c0-0.1,0-0.2,0-0.3c2.3-0.6,3.8,0,6,2.1c-0.3-1.5-0.5-2.8-0.9-4.1c-0.1-0.3-0.6-0.6-1-0.7c-2.4-0.7-4.1-1.9-4.6-4.5
		c0-0.1,0-0.2,0-0.3c2.1-0.2,3.5,0.5,5.4,3c0-1.5,0-2.8,0-4.1c0-0.2-0.3-0.5-0.5-0.6c-0.7-0.4-1.4-0.8-2.1-1.2c-1.5-1-2-2.6-2-4.4
		c2.3,0.5,4.1,1.6,4.8,4c0.2-1.3,0.5-2.7,0.7-4c0-0.3-0.3-0.8-0.6-1c-2.5-1.6-3.3-3.4-2.8-5.9c2.1,0.3,3.5,2.1,3.8,4.9
		C10.4,32.5,10.8,31.6,11.2,30.7L11.2,30.7z"/>
	<path class="st0" d="M52.4,68.1c-0.3-0.2-0.5-0.3-0.7-0.4c-1.1-0.8-2.1-1.1-3.3-0.1c-0.3,0.2-1,0.1-1.5-0.1
		c-1.3-0.6-2.5-0.7-3.7,0.2c-0.5,0.4-0.9,0.2-1.1-0.4c-0.1-0.3-0.2-0.6-0.2-0.9c-1.5,0-2.5-1-2.5-2.7c0-0.9,0.1-1.8,0-2.7
		c-0.1-0.7-0.3-1.4-0.7-2c-0.9-1.3-1.5-1.3-2.3,0.1c-0.9,1.6-1.5,1.7-3,0.6c-1.5-1.1-2.6-2.5-2.9-4.4c-0.1-0.6-0.3-1.3-0.5-1.8
		c-0.6-1.3-0.8-2.6-0.4-4.1c0.2-0.8-0.1-1.9-0.4-2.8c-0.5-1.2-0.6-2.4-0.3-3.7c0.2-0.7,0.1-1.5-0.1-2.1C26.2,33.9,28,26.2,33.4,22
		c3.1-2.4,6.8-3.6,10.7-4.1c4-0.6,8.1-0.3,11.8,0.8c6.2,1.8,10.4,6.1,11.6,12.8c0.6,3.1,0.2,6.1-0.9,9.1c-0.2,0.6-0.3,1.5-0.1,2.1
		c0.3,1.3,0.3,2.5-0.3,3.6c-0.6,1.2-0.7,2.4-0.3,3.6c0.1,0.3,0.2,0.6,0.1,0.8c-1,3-0.9,6.6-3.8,8.7c-1.6,1.2-2.5,1-3.3-0.8
		c-0.5-1-1-1-1.8-0.2c-1,1-1,2.3-0.9,3.6c0,1-0.1,2-0.4,2.9c-0.3,0.8-0.9,1.3-1.9,1.2c-0.2,0-0.6,0.4-0.8,0.7
		C52.7,67.3,52.6,67.7,52.4,68.1z M54.1,65.1c1.2-0.1,1.7-0.8,1.5-2.2c-0.3-1.4-0.2-2.8,0.7-4c0.4-0.5,1-1.3,1.5-1.3
		c0.5,0,1.2,0.6,1.6,1.1c0.8,1.1,1,1.2,2.2,0.5c0.4-0.2,0.8-0.6,1.2-0.9c2.2-2.1,2.4-5.1,3-7.9c0.1-0.2-0.1-0.6-0.2-0.8
		c-0.6-1.4-0.4-2.7,0.2-4.1c0.4-0.9,0.4-2,0.5-3c-0.2,0-0.4-0.1-0.6-0.1c-0.4,1.7-0.9,3.4-1,5.1c-0.2,1.8-0.1,3.5-0.9,5.2
		c-0.2,0.4,0,1-0.1,1.5c-0.3,1.1-0.4,2.2-0.9,3.2c-0.6,1.3-2.4,1.7-3.4,0.2c-0.4-0.6-1.2-1-1.7-1.4c0.8-0.3,1.1-0.2,2,0.7
		c0.9,0.9,1.5,1,2.3,0c0.5-0.6,0.9-1.4,1.1-2.2c0.3-0.8,0.3-1.7,0.4-2.5c0.4-3.3,0.8-6.5-0.6-9.7c-0.6-1.3-0.7-3-0.8-4.5
		c-0.1-1.1,0.4-2.1,1.4-2.7c0.8-0.5,1.1-1.2,1.2-2.1c0.1-0.7,0.1-1.4,0.1-2c0,0.2,0,0.4,0.1,0.7c0.4,1.6,0,3-1.2,4.1
		c-0.5,0.5-0.7,1.4-0.8,2.1c-0.1,1.6,0.5,2.9,1.5,4.1c1.7-2.6,2-5.5,2.1-8.4c0.2-4.1-1-7.8-4-10.7c-2-2-4.3-3.8-7.2-4.2
		c-3.7-0.5-7.4-0.7-11.1-0.7c-6.7,0.1-14.2,4.9-15.5,12.9c-0.3,2.2-0.6,4.3,0.3,6.4c0.6,1.4,1.4,2.6,2.1,3.9
		c1.2-2.1,1.4-3.4-0.4-5.3c-0.4-0.4-0.5-1.2-0.5-1.7c0.1-1.1,0.5-2.2,0.8-3.3c0.1,0.4,0.1,0.7,0.1,1.1c-0.2,1.4-0.4,2.8,0.8,3.8
		c1.5,1.3,1.5,3,1.1,4.7c-0.2,0.9-0.5,1.7-0.9,2.5c-0.6,1.4-0.9,2.8-0.7,4.2c0.3,2.5,0.5,5.1,0.8,7.6c0,0.3,0.1,0.7,0.3,1
		c0.8,1.5,1.9,1.6,3.1,0.5c0.9-0.8,2-0.8,3,0c-1.7,0-1.7,0-3,1.4c-0.8,0.9-2.1,0.8-2.9-0.2c-0.8-1-1.2-2.2-1.1-3.5
		c0-0.7-0.2-1.5-0.3-2.2c-0.2-1.1-0.4-2.1-0.6-3.2c-0.3-1.8-0.6-3.6-0.9-5.4c-0.1-0.3-0.3-0.6-0.4-0.9c-0.1,0-0.3,0.1-0.4,0.1
		c0.2,1,0.4,2.1,0.7,3.1c0.4,1.1,0.6,2.1,0.2,3.2c-0.4,1.4-0.4,2.7,0.2,4c0.2,0.5,0.4,1.1,0.5,1.7c0.3,1.6,1.2,2.9,2.4,3.9
		c1.5,1.3,2,1.2,3.1-0.4c0.8-1.2,2-1.1,2.7,0.1c0.7,1.3,1.2,2.7,0.9,4.3c-0.1,0.6,0.2,1.4,0.5,2.1c0,0.1,0.5,0.2,0.7,0.2
		c0.1-0.2,0.1-0.4,0.1-0.6c0-0.6,0-1.1,0-1.6c0.5,1.3,1,2.5,1.4,3.5c1.2-0.3,2.1-0.5,3.2-0.7c-0.1-0.3-0.1-0.7-0.2-1
		c-0.3-1.3-1-1.5-2-0.6c-0.3,0.3-0.7,0.5-1,0.8c0.2-0.4,0.4-0.8,0.6-1.1c0.6-0.7,1.7-0.8,2.3-0.1c0.3,0.3,0.4,0.7,0.7,1.1
		c0.4,0.6,0.9,1.2,1.3,1.8c0.5-0.6,1.1-1.1,1.5-1.8c1.1-2.1,1.9-2.2,3.5-0.5c0.1,0.1,0.2,0.2,0.3,0.2c-0.1,0.1-0.1,0.1-0.2,0.2
		c-0.3-0.2-0.6-0.5-1-0.7c-0.4-0.2-0.9-0.6-1.1-0.5c-0.4,0.2-0.6,0.7-0.8,1.1c-0.1,0.3-0.1,0.6-0.2,0.9c0.8,0.2,1.6,0.2,2.3,0.5
		c0.6,0.2,0.9,0.1,1.1-0.4c0.4-1,0.7-2,1.1-2.9c0,0.2,0.1,0.5,0.2,0.8C54.2,64.2,54.1,64.6,54.1,65.1z"/>
	<path class="st0" d="M11.2,30.8c0.7-1.4,0-2.4-1-3.4c-1.4-1.5-1.7-3.3-0.9-5.2c2.4,1,3.6,3.7,2.7,7c1.7-2.5,3.9-3,6.4-2.2
		c-0.9,2.5-3.4,3.3-6.6,2.8C11.6,30.1,11.4,30.4,11.2,30.8C11.2,30.7,11.2,30.8,11.2,30.8z"/>
	<path class="st0" d="M84.2,30.7c-0.2-0.3-0.4-0.6-0.6-1c-2.7,0.4-5.2,0.2-6.8-2.8c2.6-0.8,4.7-0.4,6.4,2.1c-0.4-3-0.4-5.3,2.7-7
		c1.2,2.7,0.2,4.3-1.4,5.9c-0.7,0.7-1,1.3-0.5,2.2C84.2,30.4,84.1,30.6,84.2,30.7C84.1,30.8,84.2,30.7,84.2,30.7z"/>
	<path class="st0" d="M13.4,25.8c-0.2-2.5,0.7-3.9,3.1-4.7C16.6,23.6,15.4,25.4,13.4,25.8z"/>
	<path class="st0" d="M78.9,21.1c2.5,1,3.3,2.1,3.1,4.7C80,25.5,78.8,23.7,78.9,21.1z"/>
	<path class="st1" d="M54.1,65.1c0.1-0.5,0.1-0.9,0.1-1.3c0-0.3-0.1-0.6-0.2-0.8c-0.3,0.9-0.7,1.9-1.1,2.9c-0.2,0.5-0.5,0.6-1.1,0.4
		c-0.7-0.3-1.5-0.4-2.3-0.5c0.1-0.3,0.1-0.7,0.2-0.9c0.2-0.4,0.4-1,0.8-1.1c0.3-0.1,0.8,0.3,1.1,0.5c0.3,0.2,0.6,0.5,1,0.7
		c0.1-0.1,0.1-0.1,0.2-0.2c-0.1-0.1-0.2-0.1-0.3-0.2c-1.6-1.7-2.4-1.6-3.5,0.5c-0.4,0.7-1,1.2-1.5,1.8c-0.4-0.6-0.9-1.2-1.3-1.8
		c-0.2-0.3-0.4-0.8-0.7-1.1c-0.6-0.7-1.7-0.7-2.3,0.1c-0.2,0.3-0.5,0.6-0.6,1.1c0.3-0.3,0.7-0.5,1-0.8c0.9-0.9,1.6-0.7,2,0.6
		c0.1,0.3,0.1,0.7,0.2,1c-1,0.2-2,0.4-3.2,0.7c-0.4-1.1-0.9-2.3-1.4-3.5c0,0.5,0,1,0,1.6c0,0.2-0.1,0.4-0.1,0.6
		c-0.2-0.1-0.7-0.1-0.7-0.2c-0.2-0.7-0.6-1.4-0.5-2.1c0.3-1.6-0.1-2.9-0.9-4.3c-0.7-1.3-1.9-1.3-2.7-0.1c-1.1,1.6-1.7,1.7-3.1,0.4
		c-1.2-1-2.1-2.3-2.4-3.9c-0.1-0.6-0.3-1.2-0.5-1.7c-0.6-1.3-0.7-2.7-0.2-4c0.4-1.1,0.2-2.1-0.2-3.2c-0.4-1-0.5-2.1-0.7-3.1
		c0.1,0,0.3-0.1,0.4-0.1c0.1,0.3,0.3,0.6,0.4,0.9c0.3,1.8,0.6,3.6,0.9,5.4c0.2,1.1,0.4,2.1,0.6,3.2c0.1,0.7,0.3,1.5,0.3,2.2
		c0,1.3,0.4,2.5,1.1,3.5c0.8,1,2,1.1,2.9,0.2c1.3-1.4,1.3-1.4,3-1.4c-1-0.8-2.2-0.8-3,0c-1.2,1.1-2.3,0.9-3.1-0.5
		c-0.2-0.3-0.3-0.7-0.3-1c-0.3-2.5-0.5-5.1-0.8-7.6c-0.2-1.5,0.1-2.9,0.7-4.2c0.4-0.8,0.7-1.7,0.9-2.5c0.4-1.7,0.4-3.4-1.1-4.7
		c-1.2-1-1-2.4-0.8-3.8c0.1-0.3,0.1-0.7-0.1-1.1c-0.3,1.1-0.7,2.2-0.8,3.3c-0.1,0.6,0.1,1.4,0.5,1.7c1.8,1.9,1.6,3.2,0.4,5.3
		c-0.7-1.3-1.5-2.6-2.1-3.9c-0.9-2.1-0.6-4.2-0.3-6.4c1.2-8,8.8-12.8,15.5-12.9c3.7,0,7.5,0.1,11.1,0.7c2.8,0.4,5.1,2.2,7.2,4.2
		c3,3,4.2,6.6,4,10.7c-0.1,2.9-0.4,5.8-2.1,8.4c-1.1-1.2-1.7-2.6-1.5-4.1c0.1-0.7,0.3-1.6,0.8-2.1c1.3-1.2,1.6-2.5,1.2-4.1
		c-0.1-0.2-0.1-0.5-0.1-0.7c0,0.6,0,1.3-0.1,2c-0.1,0.9-0.4,1.7-1.2,2.1c-1.1,0.6-1.5,1.6-1.4,2.7c0.1,1.5,0.2,3.1,0.8,4.5
		c1.4,3.2,1,6.5,0.6,9.7c-0.1,0.8-0.2,1.7-0.4,2.5c-0.3,0.8-0.6,1.6-1.1,2.2c-0.8,1-1.4,0.9-2.3,0c-0.9-0.9-1.2-1-2-0.7
		c0.5,0.4,1.3,0.7,1.7,1.4c0.9,1.5,2.7,1.1,3.4-0.2c0.5-1,0.6-2.1,0.9-3.2c0.1-0.5-0.1-1,0.1-1.5c0.8-1.7,0.7-3.4,0.9-5.2
		c0.2-1.7,0.7-3.4,1-5.1c0.2,0,0.4,0.1,0.6,0.1c-0.2,1-0.2,2.1-0.5,3c-0.6,1.4-0.7,2.7-0.2,4.1c0.1,0.3,0.2,0.6,0.2,0.8
		c-0.7,2.8-0.8,5.7-3,7.9c-0.4,0.3-0.8,0.7-1.2,0.9c-1.2,0.7-1.4,0.6-2.2-0.5c-0.4-0.5-1.1-1.2-1.6-1.1c-0.5,0-1.1,0.8-1.5,1.3
		c-0.9,1.2-0.9,2.5-0.7,4C55.8,64.3,55.3,65,54.1,65.1z M56.5,52.7c0.8-0.1,2.2-0.3,3.6-0.6c0.5-0.1,1-0.5,1.3-1
		c1.7-2.3,1.6-5.3-0.3-7.4c-0.7-0.9-5.7-2.2-6.5-1.6c-1.3,1-2.8,2.2-3.4,3.7C50,48.8,52.7,52.5,56.5,52.7z M38.6,52.8
		c2.2,0,2.7-0.2,3.6-1c1.7-1.6,2-3.6,1.8-5.8c0-0.3-0.4-0.7-0.6-1c-0.6-0.6-1.2-1.2-1.7-1.8c-0.7-0.9-1.5-1.3-2.6-1
		c-0.8,0.2-1.6,0.5-2.4,0.5c-2.6,0.1-3.5,1.9-4.1,4c-0.7,2.3,1,5.4,3.1,5.8C36.8,52.6,37.9,52.7,38.6,52.8z M47.6,62
		c0.4-0.9,0.6-1.6,1-2.3c0.9-1.4,1.8-2.8,2.7-4.2c0.2-0.3,0.3-0.8,0.3-1.2c0-1.4-1.1-1.7-2.1-2.2c-1.1-0.5-1.4,0.4-2,1
		c-0.2-0.2-0.3-0.3-0.4-0.4c-0.6-0.6-1.4-1-2.1-0.5c-0.8,0.5-2.2,0.8-1.8,2.2c0.3,0.9,0.9,1.7,1.4,2.4C45.7,58.5,47.2,59.8,47.6,62z
		 M44.6,59.9c0.1,0,0.1-0.1,0.2-0.1c-1.1-1.9-2.1-3.7-3.2-5.6c-0.5-0.9-1.3-1-2.2-0.7c-1,0.3-2,0.6-3,0.9c0.9,0,1.7-0.1,2.5-0.2
		c1.2-0.2,2.1,0.1,2.7,1.2c0.4,0.6,0.7,1.2,1,1.7C43.3,57.9,43.9,58.9,44.6,59.9z M58.4,54.3c0-0.1,0-0.1,0-0.2
		c-0.9-0.3-1.8-0.6-2.8-0.7c-0.6,0-1.4,0.2-1.7,0.7c-1.2,1.8-2.3,3.7-3.4,5.6c0,0,0,0.1,0.2,0.3c0.8-1.2,1.4-2.3,2.1-3.4
		c0.2-0.4,0.5-0.8,0.7-1.2c0.7-1.2,1.7-1.6,3.1-1.4C57.2,54.1,57.8,54.2,58.4,54.3z M47,64.5c0.2-2.1-0.1-4.4-2-6.1
		C45.7,60.4,46.4,62.7,47,64.5z M48.3,64.4c0.6-1.7,1.3-3.9,1.9-6C48.4,60.2,48.1,62.5,48.3,64.4z M58.1,40.6
		c0.8,0.5,1.9,0.9,2.6,1.6c0.8,0.7,1.4,1.7,2,2.5C62.4,42.4,60.1,40.4,58.1,40.6z M40,40.5c0,0,0-0.1-0.1-0.1
		c-1.2,0.3-2.5,0.7-3.7,0.8c-1.4,0.1-2.2,0.8-2.7,2.1c0.7-1.1,1.9-1.4,3.1-1.6C37.8,41.3,38.9,40.9,40,40.5z M44.8,51.1
		c0,0,0,0.1,0,0.1c0.7,0.3,1.4,0.6,2,0.8c0.3,0.1,0.6,0.1,0.8,0c1-0.6,2-0.9,3.2-0.1c-1.2-1.1-2-1.1-3.3-0.5c-0.3,0.1-0.7,0-1,0
		C45.9,51.3,45.4,51.2,44.8,51.1z M40.6,63.2c0.1,0,0.1,0,0.2,0c0.4-1,1.1-2,1.1-3c0-1-0.7-2-1.1-3c0.1,1,0.6,2,0.6,2.9
		C41.3,61.2,40.8,62.2,40.6,63.2z M47.4,44.7c-1.1-0.5-2.3-1.1-3.3-1.6C45.7,45.1,46.4,45.4,47.4,44.7z M54.5,58.1
		c-1.8,1.6-0.6,3.2,0.2,4.8C54.6,61.3,53.2,59.8,54.5,58.1z M47.9,44.5c1.1,0.7,2.1,0.3,2.9-1.1C49.9,43.8,48.9,44.1,47.9,44.5z
		 M47.2,50.5c0.2,0,0.3,0,0.5,0c-0.1-1-0.1-2-0.2-3c-0.1,0-0.2,0-0.3,0C47.2,48.5,47.2,49.5,47.2,50.5z"/>
	<path class="st0" d="M56.5,52.7c-3.8-0.2-6.5-3.9-5.3-6.9c0.6-1.4,2.1-2.6,3.4-3.7c0.8-0.7,5.7,0.7,6.5,1.6
		c1.9,2.2,2.1,5.1,0.3,7.4c-0.3,0.4-0.8,0.8-1.3,1C58.7,52.4,57.3,52.5,56.5,52.7z"/>
	<path class="st0" d="M38.6,52.8c-0.6-0.1-1.7-0.2-2.9-0.4c-2.1-0.4-3.8-3.5-3.1-5.8c0.6-2,1.6-3.8,4.1-4c0.8,0,1.6-0.3,2.4-0.5
		c1.1-0.2,1.9,0.1,2.6,1c0.5,0.7,1.2,1.2,1.7,1.8c0.2,0.3,0.6,0.6,0.6,1c0.2,2.2-0.1,4.2-1.8,5.8C41.3,52.6,40.7,52.7,38.6,52.8z"/>
	<path class="st0" d="M47.6,62c-0.4-2.2-1.9-3.5-3-5.1c-0.5-0.8-1.1-1.6-1.4-2.4c-0.4-1.4,1-1.7,1.8-2.2c0.7-0.5,1.5-0.1,2.1,0.5
		c0.1,0.1,0.2,0.2,0.4,0.4c0.6-0.6,0.9-1.5,2-1c1,0.5,2.1,0.8,2.1,2.2c0,0.4-0.1,0.9-0.3,1.2c-0.9,1.4-1.9,2.8-2.7,4.2
		C48.2,60.4,48,61.1,47.6,62z"/>
	<path class="st0" d="M44.6,59.9c-0.6-1-1.3-1.9-1.9-2.9c-0.4-0.6-0.7-1.2-1-1.7c-0.6-1-1.6-1.4-2.7-1.2c-0.8,0.2-1.7,0.2-2.5,0.2
		c1-0.3,2-0.6,3-0.9c0.9-0.2,1.7-0.2,2.2,0.7c1.1,1.9,2.1,3.7,3.2,5.6C44.7,59.8,44.6,59.9,44.6,59.9z"/>
	<path class="st0" d="M58.4,54.3c-0.6-0.1-1.2-0.1-1.8-0.2c-1.3-0.2-2.4,0.2-3.1,1.4c-0.2,0.4-0.5,0.8-0.7,1.2
		c-0.7,1.1-1.4,2.2-2.1,3.4c-0.1-0.2-0.2-0.3-0.2-0.3c1.1-1.9,2.2-3.8,3.4-5.6c0.3-0.4,1.1-0.7,1.7-0.7c0.9,0.1,1.8,0.5,2.8,0.7
		C58.4,54.1,58.4,54.2,58.4,54.3z"/>
	<path class="st0" d="M47,64.5c-0.6-1.8-1.3-4-2-6.1C46.9,60,47.3,62.4,47,64.5z"/>
	<path class="st0" d="M48.3,64.4c-0.2-1.9,0-4.2,1.9-6C49.6,60.5,48.9,62.7,48.3,64.4z"/>
	<path class="st0" d="M58.1,40.6c2-0.2,4.3,1.8,4.6,4.1c-0.6-0.8-1.2-1.8-2-2.5C60,41.5,58.9,41.1,58.1,40.6z"/>
	<path class="st0" d="M40,40.5c-1.1,0.4-2.3,0.8-3.4,1.1c-1.2,0.3-2.4,0.5-3.1,1.6c0.5-1.2,1.3-1.9,2.7-2.1c1.3-0.1,2.5-0.5,3.7-0.8
		C40,40.4,40,40.5,40,40.5z"/>
	<path class="st0" d="M44.8,51.1c0.6,0.1,1.1,0.3,1.7,0.3c0.3,0.1,0.8,0.2,1,0c1.3-0.7,2.1-0.6,3.3,0.5c-1.1-0.8-2.1-0.4-3.2,0.1
		c-0.2,0.1-0.6,0.1-0.8,0c-0.7-0.2-1.4-0.5-2-0.8C44.8,51.2,44.8,51.1,44.8,51.1z"/>
	<path class="st0" d="M40.6,63.2c0.3-1,0.7-2,0.7-3c0-1-0.5-1.9-0.6-2.9c0.4,1,1.1,2,1.1,3c0,1-0.7,2-1.1,3
		C40.7,63.2,40.6,63.2,40.6,63.2z"/>
	<path class="st0" d="M47.4,44.7c-0.9,0.7-1.7,0.4-3.3-1.6C45.1,43.6,46.2,44.1,47.4,44.7z"/>
	<path class="st0" d="M54.5,58.1c-1.3,1.7,0.1,3.2,0.2,4.8C53.8,61.3,52.7,59.8,54.5,58.1z"/>
	<path class="st0" d="M47.9,44.5c1-0.4,2-0.8,2.9-1.1C50,44.8,49,45.2,47.9,44.5z"/>
	<path class="st0" d="M47.2,50.5c0-1,0-2.1,0-3.1c0.1,0,0.2,0,0.3,0c0.1,1,0.1,2,0.2,3C47.5,50.5,47.4,50.5,47.2,50.5z"/>
</g>
<g>
	<path class="st0" d="M30.1,12.2c-0.8,0-1.5-0.1-1.9-0.4c-0.5-0.3-0.8-0.7-1-1.2c-0.2-0.5-0.3-1.2-0.3-1.9V4.6
		c0-0.8,0.1-1.4,0.3-1.9c0.2-0.5,0.5-0.9,1-1.2C28.7,1.1,29.3,1,30.1,1c0.8,0,1.5,0.1,2,0.4c0.5,0.3,0.8,0.7,1,1.2
		c0.2,0.5,0.3,1.2,0.3,1.9v4.1c0,0.7-0.1,1.4-0.3,1.9c-0.2,0.5-0.6,1-1,1.2C31.6,12.1,30.9,12.2,30.1,12.2z M30.1,10.5
		c0.3,0,0.4-0.1,0.6-0.2c0.1-0.1,0.2-0.3,0.2-0.5c0-0.2,0.1-0.4,0.1-0.6V4c0-0.2,0-0.4-0.1-0.6S30.8,3,30.7,2.9
		c-0.1-0.1-0.3-0.2-0.6-0.2c-0.2,0-0.4,0.1-0.5,0.2c-0.1,0.1-0.2,0.3-0.2,0.5S29.3,3.7,29.3,4v5.3c0,0.2,0,0.4,0,0.6
		c0,0.2,0.1,0.4,0.2,0.5C29.7,10.4,29.9,10.5,30.1,10.5z"/>
	<path class="st0" d="M35.5,12.1V1.1h2.4v9.3h2.5v1.6H35.5z"/>
	<path class="st0" d="M42,12.1V1.1h2.4v10.9H42z"/>
	<path class="st0" d="M48.2,12.1l-2-10.9h2.1l1.2,7.4l1.1-7.4h2.2l-2,10.9H48.2z"/>
	<path class="st0" d="M54.4,12.1V1.1h4.9v1.6h-2.5v2.7h1.9v1.7h-1.9v3.3h2.5v1.6H54.4z"/>
	<path class="st0" d="M61.1,12.1V1.1h3c0.7,0,1.4,0.1,1.9,0.2c0.5,0.2,1,0.5,1.3,0.9c0.3,0.4,0.5,1,0.5,1.8c0,0.5,0,0.8-0.1,1.2
		c-0.1,0.4-0.2,0.7-0.4,0.9c-0.2,0.3-0.5,0.5-0.8,0.6l1.5,5.3h-2.5l-1.2-4.9h-0.7v4.9H61.1z M63.5,5.8h0.7c0.3,0,0.6-0.1,0.8-0.2
		s0.3-0.3,0.4-0.5c0.1-0.2,0.1-0.5,0.1-0.8c0-0.5-0.1-0.8-0.3-1.1c-0.2-0.3-0.5-0.4-0.9-0.4h-0.8V5.8z"/>
</g>
<g>
	<path class="st0" d="M23.7,88.4V77.2h-2V75h7v2.2h-2v11.2H23.7z"/>
	<path class="st0" d="M29.3,88.4L31.8,75h3.4l2.5,13.3H35l-0.4-2.8h-2l-0.5,2.8H29.3z M32.8,83.8h1.4l-0.7-5.2L32.8,83.8z"/>
	<path class="st0" d="M40.3,88.4V77.2h-2V75h7v2.2h-2v11.2H40.3z"/>
	<path class="st0" d="M48.4,88.4V77.2h-2V75h7v2.2h-2v11.2H48.4z"/>
	<path class="st0" d="M59,88.6c-1,0-1.8-0.2-2.4-0.5c-0.6-0.4-1-0.9-1.3-1.5c-0.3-0.7-0.4-1.4-0.4-2.4v-5c0-0.9,0.1-1.7,0.4-2.4
		c0.3-0.6,0.7-1.1,1.3-1.5c0.6-0.3,1.4-0.5,2.4-0.5c1,0,1.8,0.2,2.4,0.5c0.6,0.3,1,0.8,1.3,1.5c0.3,0.6,0.4,1.4,0.4,2.4v5
		c0,0.9-0.1,1.7-0.4,2.4c-0.3,0.7-0.7,1.2-1.3,1.5C60.8,88.4,60,88.6,59,88.6z M59,86.5c0.3,0,0.5-0.1,0.7-0.2
		c0.1-0.2,0.2-0.4,0.3-0.6c0-0.2,0.1-0.5,0.1-0.7v-6.4c0-0.3,0-0.5-0.1-0.8c0-0.2-0.1-0.4-0.3-0.6c-0.1-0.2-0.4-0.2-0.7-0.2
		c-0.3,0-0.5,0.1-0.6,0.2c-0.1,0.2-0.2,0.3-0.3,0.6c0,0.2-0.1,0.5-0.1,0.8v6.4c0,0.3,0,0.5,0.1,0.7c0,0.2,0.1,0.4,0.3,0.6
		C58.5,86.4,58.7,86.5,59,86.5z"/>
	<path class="st0" d="M69.4,88.6c-1,0-1.8-0.2-2.4-0.5c-0.6-0.4-1-0.9-1.3-1.5c-0.3-0.7-0.4-1.4-0.4-2.4v-5c0-0.9,0.1-1.7,0.4-2.4
		c0.3-0.6,0.7-1.1,1.3-1.5c0.6-0.3,1.4-0.5,2.4-0.5c1,0,1.8,0.2,2.4,0.5c0.6,0.3,1,0.8,1.3,1.5c0.3,0.6,0.4,1.4,0.4,2.4v5
		c0,0.9-0.1,1.7-0.4,2.4c-0.3,0.7-0.7,1.2-1.3,1.5C71.2,88.4,70.4,88.6,69.4,88.6z M69.4,86.5c0.3,0,0.5-0.1,0.7-0.2
		c0.1-0.2,0.2-0.4,0.3-0.6c0-0.2,0.1-0.5,0.1-0.7v-6.4c0-0.3,0-0.5-0.1-0.8c0-0.2-0.1-0.4-0.3-0.6c-0.1-0.2-0.4-0.2-0.7-0.2
		c-0.3,0-0.5,0.1-0.6,0.2c-0.1,0.2-0.2,0.3-0.3,0.6c0,0.2-0.1,0.5-0.1,0.8v6.4c0,0.3,0,0.5,0.1,0.7c0,0.2,0.1,0.4,0.3,0.6
		C68.9,86.4,69.1,86.5,69.4,86.5z"/>
</g>
</svg>
