<svg width="294" height="31" viewBox="0 0 294 31" fill="none" xmlns="http://www.w3.org/2000/svg">
<path d="M7.262 30.272C4.90467 30.272 3.114 29.558 1.89 28.13C0.666 26.6793 0.054 24.6507 0.054 22.044V8.138C0.054 5.622 0.666 3.72933 1.89 2.46C3.114 1.168 4.90467 0.521999 7.262 0.521999C9.61933 0.521999 11.41 1.168 12.634 2.46C13.858 3.72933 14.47 5.622 14.47 8.138V22.044C14.47 24.6733 13.858 26.702 12.634 28.13C11.41 29.558 9.61933 30.272 7.262 30.272ZM7.262 24.9C7.78333 24.9 8.13467 24.6733 8.316 24.22C8.49733 23.7667 8.588 23.132 8.588 22.316V8.036C8.588 7.40133 8.49733 6.89133 8.316 6.506C8.15733 6.098 7.81733 5.894 7.296 5.894C6.32133 5.894 5.834 6.63066 5.834 8.104V22.35C5.834 23.1887 5.936 23.8233 6.14 24.254C6.344 24.6847 6.718 24.9 7.262 24.9ZM18.8272 30V0.793999H24.6752V25.036H30.6932V30H18.8272ZM34.0688 30V0.793999H39.7128V30H34.0688ZM46.73 30L43.126 0.76H48.702L50.844 20.65L52.748 0.76H58.324L54.72 30H46.73ZM61.9815 30V0.793999H73.6775V6.438H67.9315V12.116H73.4395V17.624H67.9315V24.322H74.0515V30H61.9815ZM77.9932 0.793999H86.9692C88.3972 0.793999 89.4965 1.12267 90.2672 1.78C91.0605 2.41467 91.5932 3.32133 91.8652 4.5C92.1372 5.656 92.2732 7.14067 92.2732 8.954C92.2732 10.6087 92.0578 11.9007 91.6272 12.83C91.1965 13.7593 90.4485 14.4053 89.3832 14.768C90.2672 14.9493 90.9018 15.3913 91.2872 16.094C91.6952 16.7967 91.8992 17.7487 91.8992 18.95L91.8312 30H86.1192V18.576C86.1192 17.76 85.9605 17.2387 85.6432 17.012C85.3258 16.7853 84.7478 16.672 83.9092 16.672V30H77.9932V0.793999ZM85.3372 11.606C86.1532 11.606 86.5612 10.722 86.5612 8.954C86.5612 8.18333 86.5272 7.60533 86.4592 7.22C86.3912 6.83467 86.2665 6.574 86.0852 6.438C85.9038 6.27933 85.6432 6.2 85.3032 6.2H83.9432V11.606H85.3372ZM108.681 30V6.404H105.213V0.793999H117.997V6.404H114.529V30H108.681ZM120.864 30L123.686 0.793999H133.58L136.368 30H130.826L130.418 25.274H126.882L126.542 30H120.864ZM127.324 20.616H129.976L128.684 5.758H128.412L127.324 20.616ZM142.663 30V6.404H139.195V0.793999H151.979V6.404H148.511V30H142.663ZM158.144 30V6.404H154.676V0.793999H167.46V6.404H163.992V30H158.144ZM178.078 30.272C175.721 30.272 173.93 29.558 172.706 28.13C171.482 26.6793 170.87 24.6507 170.87 22.044V8.138C170.87 5.622 171.482 3.72933 172.706 2.46C173.93 1.168 175.721 0.521999 178.078 0.521999C180.436 0.521999 182.226 1.168 183.45 2.46C184.674 3.72933 185.286 5.622 185.286 8.138V22.044C185.286 24.6733 184.674 26.702 183.45 28.13C182.226 29.558 180.436 30.272 178.078 30.272ZM178.078 24.9C178.6 24.9 178.951 24.6733 179.132 24.22C179.314 23.7667 179.404 23.132 179.404 22.316V8.036C179.404 7.40133 179.314 6.89133 179.132 6.506C178.974 6.098 178.634 5.894 178.112 5.894C177.138 5.894 176.65 6.63066 176.65 8.104V22.35C176.65 23.1887 176.752 23.8233 176.956 24.254C177.16 24.6847 177.534 24.9 178.078 24.9ZM206.548 30.272C203.896 30.272 201.981 29.6147 200.802 28.3C199.624 26.9853 199.034 24.866 199.034 21.942V19.086H204.78V22.724C204.78 24.1747 205.245 24.9 206.174 24.9C206.696 24.9 207.058 24.7527 207.262 24.458C207.466 24.1407 207.568 23.6193 207.568 22.894C207.568 21.942 207.455 21.16 207.228 20.548C207.002 19.9133 206.707 19.392 206.344 18.984C206.004 18.5533 205.381 17.896 204.474 17.012L201.958 14.496C200.009 12.592 199.034 10.484 199.034 8.172C199.034 5.67867 199.601 3.786 200.734 2.494C201.89 1.17933 203.568 0.521999 205.766 0.521999C208.396 0.521999 210.288 1.22466 211.444 2.63C212.6 4.01267 213.178 6.18867 213.178 9.158H207.228L207.194 7.152C207.194 6.76667 207.081 6.46067 206.854 6.234C206.65 6.00733 206.356 5.894 205.97 5.894C205.517 5.894 205.177 6.01867 204.95 6.268C204.724 6.51733 204.61 6.85733 204.61 7.288C204.61 8.24 205.154 9.226 206.242 10.246L209.642 13.51C210.436 14.2807 211.093 15.0173 211.614 15.72C212.136 16.4 212.555 17.216 212.872 18.168C213.19 19.0973 213.348 20.208 213.348 21.5C213.348 24.3787 212.816 26.566 211.75 28.062C210.708 29.5353 208.974 30.272 206.548 30.272ZM219.8 30V6.404H216.332V0.793999H229.116V6.404H225.648V30H219.8ZM239.531 30.272C237.128 30.272 235.337 29.592 234.159 28.232C233.003 26.872 232.425 24.8547 232.425 22.18V0.793999H238.103V21.942C238.103 22.8713 238.193 23.5967 238.375 24.118C238.556 24.6393 238.941 24.9 239.531 24.9C240.12 24.9 240.505 24.6507 240.687 24.152C240.868 23.6307 240.959 22.894 240.959 21.942V0.793999H246.637V22.18C246.637 24.8547 246.047 26.872 244.869 28.232C243.713 29.592 241.933 30.272 239.531 30.272ZM250.868 0.793999H258.926C261.012 0.793999 262.576 1.372 263.618 2.528C264.661 3.684 265.194 5.39533 265.216 7.662L265.284 21.33C265.307 24.2087 264.808 26.3733 263.788 27.824C262.768 29.2747 261.08 30 258.722 30H250.868V0.793999ZM257.77 24.832C258.836 24.832 259.368 24.3107 259.368 23.268V8.206C259.368 7.54867 259.312 7.06133 259.198 6.744C259.108 6.404 258.926 6.17733 258.654 6.064C258.382 5.95066 257.963 5.894 257.396 5.894H256.75V24.832H257.77ZM269.364 30V0.793999H275.008V30H269.364ZM286.309 30.272C283.952 30.272 282.161 29.558 280.937 28.13C279.713 26.6793 279.101 24.6507 279.101 22.044V8.138C279.101 5.622 279.713 3.72933 280.937 2.46C282.161 1.168 283.952 0.521999 286.309 0.521999C288.666 0.521999 290.457 1.168 291.681 2.46C292.905 3.72933 293.517 5.622 293.517 8.138V22.044C293.517 24.6733 292.905 26.702 291.681 28.13C290.457 29.558 288.666 30.272 286.309 30.272ZM286.309 24.9C286.83 24.9 287.182 24.6733 287.363 24.22C287.544 23.7667 287.635 23.132 287.635 22.316V8.036C287.635 7.40133 287.544 6.89133 287.363 6.506C287.204 6.098 286.864 5.894 286.343 5.894C285.368 5.894 284.881 6.63066 284.881 8.104V22.35C284.881 23.1887 284.983 23.8233 285.187 24.254C285.391 24.6847 285.765 24.9 286.309 24.9Z" fill="white"/>
</svg>
